<svg width="2343" height="478" viewBox="0 0 2343 478" fill="none" xmlns="http://www.w3.org/2000/svg">
<path d="M249.101 193.655H200.729V258.229C210.758 267.486 217.315 274.121 220.401 278.133C223.487 281.99 227.036 289.088 231.048 299.426H200.266C200.266 281.682 195.251 268.335 185.222 259.386C175.192 250.437 162.309 245.962 146.57 245.962C128.363 245.962 111.776 250.899 96.8096 260.774C81.9971 270.649 70.3477 283.147 61.8613 298.269C53.375 313.235 49.1318 327.662 49.1318 341.549C49.1318 350.189 51.0605 358.29 54.918 365.851C58.9297 373.257 65.333 379.274 74.1279 383.903C83.0771 388.532 94.4951 390.847 108.382 390.847C126.126 390.847 139.781 387.915 149.348 382.052C159.068 376.034 165.317 371.097 168.095 367.239H217.393C215.541 374.8 210.372 382.438 201.886 390.152C193.399 397.867 183.139 404.271 171.104 409.362C159.223 414.454 148.268 417 138.238 417C118.797 417 99.124 411.6 79.2197 400.799C59.3154 389.844 43.0371 375.957 30.3848 359.139C17.8867 342.32 11.6377 325.733 11.6377 309.378C11.6377 300.12 15.8037 288.162 24.1357 273.504C32.6221 258.691 44.5029 245.808 59.7783 234.853C75.0537 223.897 92.4893 218.42 112.085 218.42C124.737 218.42 135.538 220.04 144.487 223.28C153.437 226.366 159.84 229.298 163.697 232.075V193.655H0.296875V165.882H249.101V193.655ZM347.928 193.655H323.395V165.882H347.928V193.655ZM268.773 193.655H242.389V165.882H268.773V193.655ZM315.757 137.877V422.786C315.14 422.786 313.057 421.86 309.508 420.009C306.113 418.312 302.179 416.306 297.704 413.991C293.229 411.677 288.601 409.362 283.817 407.048C279.034 404.579 276.411 403.345 275.948 403.345V138.34C275.177 119.979 272.014 102.774 266.459 86.7275C260.904 70.6807 254.655 57.334 247.712 46.6875C240.923 36.041 233.594 26.2432 225.725 17.2939C217.701 8.34473 212.764 2.86719 210.912 0.861328H260.21C273.325 13.9766 284.126 29.0205 292.612 45.9932C301.099 62.8115 307.039 79.2441 310.434 95.291C313.982 111.184 315.757 125.379 315.757 137.877ZM591.177 193.655H539.102V257.303C539.102 258.691 541.262 261.469 545.582 265.635C550.057 269.646 553.991 273.735 557.386 277.901C560.935 282.067 564.175 288.316 567.106 296.648C570.192 304.826 571.735 314.933 571.735 326.968C571.735 343.323 567.569 358.521 559.237 372.562C550.905 386.604 539.41 397.636 524.752 405.659C510.094 413.528 493.97 417.463 476.38 417.463C464.808 417.463 452.001 414.531 437.96 408.668C423.919 402.65 410.572 394.396 397.92 383.903C385.422 373.411 375.315 361.607 367.601 348.492C359.886 335.223 356.028 321.567 356.028 307.526C356.028 297.343 359.731 285.616 367.138 272.347C374.544 259.077 385.19 247.659 399.077 238.093C413.118 228.372 429.937 223.512 449.532 223.512C460.333 223.512 476.303 226.366 497.441 232.075C498.367 232.075 498.83 231.458 498.83 230.224V193.655H340.059V165.882H591.177V193.655ZM537.713 296.186C537.713 284.459 534.704 274.97 528.687 267.718C522.823 260.466 516.188 255.451 508.782 252.674C501.53 249.742 495.513 248.276 490.729 248.276C483.323 248.276 473.911 250.437 462.493 254.757C451.229 258.923 440.043 265.326 428.934 273.967C417.824 282.607 408.566 293.485 401.16 306.601C393.908 319.562 390.282 334.22 390.282 350.575C390.282 357.364 392.597 363.999 397.226 370.479C401.854 376.96 407.872 382.283 415.278 386.449C422.685 390.461 430.322 392.467 438.191 392.467C446.061 392.467 455.858 389.998 467.585 385.061C479.312 380.123 490.421 373.411 500.913 364.925C511.56 356.284 520.354 346.101 527.298 334.374C534.241 322.647 537.713 309.918 537.713 296.186ZM665.471 141.58C664.854 142.197 663.079 142.506 660.147 142.506C657.679 142.506 655.519 142.197 653.667 141.58C642.558 119.824 635.46 106.555 632.374 101.771C628.979 97.1426 624.659 94.1338 619.413 92.7451C614.321 91.3564 609.461 90.0449 604.832 88.8105C600.357 87.4219 596.731 84.3359 593.954 79.5527C593.337 78.627 592.18 75.0781 590.482 68.9062C588.785 62.5801 585.468 55.251 580.53 46.9189V41.5957H589.557C607.609 47.1504 620.416 52.2422 627.977 56.8711C635.537 61.3457 640.32 65.7432 642.326 70.0635C644.486 74.2295 647.495 82.9473 651.353 96.2168C655.21 109.332 659.762 121.136 665.008 131.628C665.162 133.017 665.239 134.328 665.239 135.562C665.394 136.643 665.471 138.648 665.471 141.58ZM679.126 193.655H584.928V165.882H679.126V193.655ZM652.741 422.323L613.858 400.799V222.123H652.741V422.323ZM923.995 193.655H675.191V165.882H923.995V193.655ZM874.234 295.26C874.234 258.229 856.722 239.713 821.696 239.713C811.513 239.713 801.021 242.722 790.22 248.739C779.573 254.757 770.007 263.089 761.521 273.735C753.188 284.382 746.399 297.034 741.153 311.692C736.062 326.351 733.516 341.549 733.516 357.287V424.638L695.559 404.733V230.687H735.367V258.229C738.607 255.76 743.931 251.594 751.337 245.73C758.897 239.867 768.001 234.467 778.647 229.529C789.448 224.592 801.098 222.123 813.596 222.123C825.785 222.123 837.512 224.746 848.775 229.992C860.039 235.238 870.068 242.567 878.863 251.979C887.658 261.392 894.602 272.501 899.693 285.308C904.785 297.96 907.331 311.538 907.331 326.042C907.331 342.397 903.782 359.139 896.685 376.266C889.587 393.238 878.323 410.134 862.894 426.952L818.225 398.947C821.002 395.244 826.171 389.844 833.731 382.746C841.292 375.648 847.927 368.474 853.636 361.222C859.345 353.815 864.205 344.712 868.217 333.911C872.229 322.956 874.234 310.072 874.234 295.26ZM1125.35 193.655H1008.24V379.969C1008.24 385.369 1010.09 390.615 1013.8 395.707C1017.65 400.799 1021.82 403.345 1026.29 403.345C1049.28 403.345 1060.78 379.583 1060.78 332.06L1107.3 358.676C1099.74 375.494 1089.4 389.535 1076.29 400.799C1063.33 411.908 1046.2 417.463 1024.91 417.463C1014.26 417.309 1004.46 414.531 995.512 409.131C986.717 403.576 979.696 396.556 974.45 388.069C969.204 379.429 966.581 370.865 966.581 362.379V193.655H918.209V165.882H966.581V88.1162L1008.24 117.047V165.882H1125.35V193.655ZM1276.02 193.655H1199.18V418.852C1197.64 418.852 1184.22 412.834 1158.91 400.799V193.655H1119.57V165.882H1157.06C1157.06 161.716 1153.59 155.235 1146.65 146.44C1139.86 137.491 1134.84 130.394 1131.6 125.147C1128.52 119.747 1126.97 112.727 1126.97 104.086C1126.97 97.2969 1129.67 89.1963 1135.07 79.7842C1140.63 70.3721 1148.57 62.3486 1158.91 55.7139C1169.25 49.0791 1181.36 45.7617 1195.25 45.7617C1209.14 45.7617 1221.4 48.3848 1232.05 53.6309C1242.7 58.877 1251.03 66.1289 1257.04 75.3867C1263.06 84.4902 1266.69 95.0596 1267.92 107.095C1260.83 96.1396 1252.8 88.1162 1243.85 83.0244C1234.9 77.7783 1225.88 75.1553 1216.77 75.1553C1209.06 75.1553 1201.73 76.9297 1194.79 80.4785C1187.84 84.0273 1182.29 88.8877 1178.12 95.0596C1174.11 101.077 1172.1 107.403 1172.1 114.038C1172.1 118.204 1174.42 124.067 1179.05 131.628C1183.83 139.034 1189.93 146.132 1197.33 152.921C1198.1 155.081 1198.57 157.473 1198.72 160.096C1199.03 162.719 1199.18 164.647 1199.18 165.882H1276.02V193.655ZM1531.54 193.655H1337.82V342.012C1338.13 352.812 1340.13 363.073 1343.84 372.794C1347.69 382.36 1353.25 390.075 1360.5 395.938C1367.75 401.802 1376.32 404.733 1386.19 404.733C1400.54 404.733 1412.73 401.57 1422.76 395.244C1432.79 388.764 1440.66 380.972 1446.37 371.868C1452.08 362.61 1456.17 353.661 1458.63 345.021C1461.1 336.226 1462.34 329.128 1462.34 323.728V231.612H1509.32V428.804C1506.08 426.952 1499.06 423.635 1488.26 418.852C1477.61 414.068 1468.82 410.134 1461.87 407.048V388.532C1453.85 394.396 1446.06 399.564 1438.5 404.039C1430.94 408.359 1423.15 411.6 1415.12 413.76C1407.1 415.92 1397.76 417 1387.12 417C1371.69 417 1356.64 412.988 1341.99 404.965C1327.48 396.941 1315.75 385.986 1306.81 372.1C1298.01 358.213 1293.61 343.169 1293.61 326.968V193.655H1265.61V165.882H1531.54V193.655ZM1764.84 193.655H1739.61V281.373C1730.66 276.127 1717.85 271.575 1701.19 267.718C1684.52 263.86 1670.33 261.932 1658.6 261.932C1648.88 261.932 1637.23 263.089 1623.65 265.403C1610.23 267.563 1598.12 271.498 1587.32 277.207C1576.67 282.762 1571.35 290.168 1571.35 299.426C1571.35 303.283 1572.89 307.372 1575.98 311.692C1579.22 315.858 1584.15 317.941 1590.79 317.941C1598.04 317.941 1608.53 315.473 1622.27 310.535C1636.15 305.443 1646.34 301.972 1652.82 300.12C1659.45 298.114 1669.09 297.111 1681.75 297.111C1693.63 297.111 1704.89 299.271 1715.54 303.592C1726.34 307.758 1734.9 313.853 1741.23 321.876C1747.71 329.899 1750.95 339.157 1750.95 349.649C1750.95 362.147 1746.4 373.488 1737.29 383.672C1728.19 393.855 1717.24 401.879 1704.43 407.742C1691.78 413.451 1679.66 416.691 1668.09 417.463C1679.2 428.572 1689.77 434.127 1699.8 434.127C1703.04 434.127 1706.51 433.664 1710.21 432.738L1733.59 470.927C1732.36 472.007 1729.35 473.318 1724.56 474.861C1719.94 476.404 1713.15 477.176 1704.2 477.176C1691.39 477.176 1681.67 473.55 1675.04 466.298C1668.4 459.046 1661.53 449.248 1654.44 436.904C1647.49 424.561 1641.78 418.389 1637.31 418.389C1625.74 417.926 1614.24 416.769 1602.82 414.917C1591.56 412.911 1581.07 408.899 1571.35 402.882C1561.63 396.864 1556.77 388.609 1556.77 378.117C1556.77 371.174 1559.08 366.236 1563.71 363.305C1568.49 360.219 1573.89 358.676 1579.91 358.676C1587.32 358.676 1593.26 359.756 1597.73 361.916C1602.21 364.076 1607.68 367.394 1614.17 371.868C1620.8 376.188 1627.36 379.506 1633.84 381.82C1640.47 384.135 1649.34 385.292 1660.45 385.292C1668.32 385.292 1678.74 383.903 1691.7 381.126C1704.81 378.349 1716.39 374.26 1726.42 368.859C1736.45 363.305 1741.46 356.593 1741.46 348.724C1741.46 344.403 1739.92 340.932 1736.83 338.309C1733.75 335.531 1730.2 333.68 1726.18 332.754C1722.17 331.674 1718.01 331.134 1713.69 331.134C1707.98 331.134 1701.88 331.982 1695.4 333.68C1689.08 335.377 1676.73 338.694 1658.37 343.632C1640.01 348.569 1628.75 351.038 1624.58 351.038C1613.93 351.038 1602.98 348.029 1591.71 342.012C1580.61 335.84 1571.27 327.276 1563.71 316.321C1556.3 305.366 1552.52 293.408 1552.37 280.447C1552.37 266.406 1557.62 255.065 1568.11 246.425C1578.6 237.63 1591.17 231.381 1605.83 227.678C1620.49 223.975 1634.3 222.123 1647.26 222.123C1655.9 222.123 1666.78 223.512 1679.9 226.289C1693.17 228.912 1703.27 231.149 1710.21 233.001V193.655H1525.98V165.882H1764.84V193.655ZM1840.75 141.58C1840.13 142.197 1838.36 142.506 1835.43 142.506C1832.96 142.506 1830.8 142.197 1828.95 141.58C1817.84 119.824 1810.74 106.555 1807.65 101.771C1804.26 97.1426 1799.94 94.1338 1794.69 92.7451C1789.6 91.3564 1784.74 90.0449 1780.11 88.8105C1775.64 87.4219 1772.01 84.3359 1769.23 79.5527C1768.62 78.627 1767.46 75.0781 1765.76 68.9062C1764.06 62.5801 1760.75 55.251 1755.81 46.9189V41.5957H1764.84C1782.89 47.1504 1795.7 52.2422 1803.26 56.8711C1810.82 61.3457 1815.6 65.7432 1817.61 70.0635C1819.77 74.2295 1822.77 82.9473 1826.63 96.2168C1830.49 109.332 1835.04 121.136 1840.29 131.628C1840.44 133.017 1840.52 134.328 1840.52 135.562C1840.67 136.643 1840.75 138.648 1840.75 141.58ZM1854.41 193.655H1760.21V165.882H1854.41V193.655ZM1828.02 422.323L1789.14 400.799V222.123H1828.02V422.323ZM2099.74 193.655H2047.66V257.303C2047.66 258.691 2049.82 261.469 2054.14 265.635C2058.62 269.646 2062.55 273.735 2065.95 277.901C2069.5 282.067 2072.74 288.316 2075.67 296.648C2078.75 304.826 2080.3 314.933 2080.3 326.968C2080.3 343.323 2076.13 358.521 2067.8 372.562C2059.47 386.604 2047.97 397.636 2033.31 405.659C2018.65 413.528 2002.53 417.463 1984.94 417.463C1973.37 417.463 1960.56 414.531 1946.52 408.668C1932.48 402.65 1919.13 394.396 1906.48 383.903C1893.98 373.411 1883.88 361.607 1876.16 348.492C1868.45 335.223 1864.59 321.567 1864.59 307.526C1864.59 297.343 1868.29 285.616 1875.7 272.347C1883.1 259.077 1893.75 247.659 1907.64 238.093C1921.68 228.372 1938.5 223.512 1958.09 223.512C1968.89 223.512 1984.86 226.366 2006 232.075C2006.93 232.075 2007.39 231.458 2007.39 230.224V193.655H1848.62V165.882H2099.74V193.655ZM2046.27 296.186C2046.27 284.459 2043.26 274.97 2037.25 267.718C2031.38 260.466 2024.75 255.451 2017.34 252.674C2010.09 249.742 2004.07 248.276 1999.29 248.276C1991.88 248.276 1982.47 250.437 1971.05 254.757C1959.79 258.923 1948.6 265.326 1937.49 273.967C1926.38 282.607 1917.13 293.485 1909.72 306.601C1902.47 319.562 1898.84 334.22 1898.84 350.575C1898.84 357.364 1901.16 363.999 1905.79 370.479C1910.42 376.96 1916.43 382.283 1923.84 386.449C1931.25 390.461 1938.88 392.467 1946.75 392.467C1954.62 392.467 1964.42 389.998 1976.15 385.061C1987.87 380.123 1998.98 373.411 2009.47 364.925C2020.12 356.284 2028.92 346.101 2035.86 334.374C2042.8 322.647 2046.27 309.918 2046.27 296.186ZM2342.29 193.655H2093.49V165.882H2342.29V193.655ZM2292.53 295.26C2292.53 258.229 2275.02 239.713 2239.99 239.713C2229.81 239.713 2219.32 242.722 2208.52 248.739C2197.87 254.757 2188.3 263.089 2179.82 273.735C2171.49 284.382 2164.7 297.034 2159.45 311.692C2154.36 326.351 2151.81 341.549 2151.81 357.287V424.638L2113.86 404.733V230.687H2153.66V258.229C2156.9 255.76 2162.23 251.594 2169.63 245.73C2177.19 239.867 2186.3 234.467 2196.94 229.529C2207.75 224.592 2219.39 222.123 2231.89 222.123C2244.08 222.123 2255.81 224.746 2267.07 229.992C2278.34 235.238 2288.37 242.567 2297.16 251.979C2305.96 261.392 2312.9 272.501 2317.99 285.308C2323.08 297.96 2325.63 311.538 2325.63 326.042C2325.63 342.397 2322.08 359.139 2314.98 376.266C2307.88 393.238 2296.62 410.134 2281.19 426.952L2236.52 398.947C2239.3 395.244 2244.47 389.844 2252.03 382.746C2259.59 375.648 2266.22 368.474 2271.93 361.222C2277.64 353.815 2282.5 344.712 2286.51 333.911C2290.53 322.956 2292.53 310.072 2292.53 295.26Z" fill="url(#paint0_linear)"/>
<defs>
<linearGradient id="paint0_linear" x1="4" y1="287.5" x2="2392.7" y2="287.5" gradientUnits="userSpaceOnUse">
<stop stop-color="#FF9A30"/>
<stop offset="0.372917" stop-color="#FF9A30"/>
<stop offset="0.51875" stop-color="#F9F9F9"/>
<stop offset="0.669792" stop-color="#0A8901"/>
<stop offset="1" stop-color="#0A8901"/>
</linearGradient>
</defs>
</svg>
